<svg width="358" height="219" viewBox="0 0 358 219" fill="none" xmlns="http://www.w3.org/2000/svg">
<g clip-path="url(#clip0_544_4448)">
<path d="M79.4641 29.6232L12.8916 74.206L78.4651 172.343L145.038 127.76L79.4641 29.6232Z" fill="#F5F5F5"/>
<path d="M110.636 123.118L109.882 127.799L76.7861 123.023L77.5397 118.342L110.636 123.118Z" fill="#E0E0E0"/>
<path d="M93.969 106.421L98.7157 107.104L93.4528 139.726L88.7002 139.037L93.969 106.421Z" fill="#E0E0E0"/>
<path d="M63.5135 64.9595C63.5609 65.0248 56.8919 69.5808 48.6149 75.1169C40.3379 80.653 33.5917 85.0961 33.5442 85.0248C33.4967 84.9535 40.1658 80.4035 48.4428 74.8615C56.7198 69.3195 63.4363 64.8882 63.5135 64.9595Z" fill="#E0E0E0"/>
<path d="M87.9706 58.8057C88.0181 58.877 76.9227 66.3851 63.193 75.5802C49.4633 84.7754 38.273 92.1707 38.2374 92.1053C38.2018 92.04 49.2734 84.5199 63.0209 75.3248C76.7685 66.1297 87.9231 58.7344 87.9706 58.8057Z" fill="#E0E0E0"/>
<path d="M92.8778 66.1475C92.9253 66.2188 81.83 73.7329 68.1002 82.928C54.3705 92.1231 43.1802 99.5184 43.1446 99.4472C43.109 99.3759 54.1925 91.8677 67.9282 82.6667C81.6638 73.4656 92.8304 66.0762 92.8778 66.1475Z" fill="#E0E0E0"/>
<path d="M97.7845 73.4953C97.832 73.5666 86.7366 81.0807 73.0069 90.2699C59.2772 99.459 48.0869 106.866 48.0869 106.795C48.0869 106.724 59.1288 99.2096 72.8645 90.0144C86.6002 80.8193 97.737 73.424 97.7845 73.4953Z" fill="#E0E0E0"/>
<path d="M102.674 80.8431C102.721 80.9144 91.6258 88.4225 77.896 97.6176C64.1663 106.813 52.976 114.208 52.9463 114.137C52.9167 114.065 64.0061 106.557 77.7536 97.3622C91.5011 88.1671 102.674 80.7718 102.674 80.8431Z" fill="#E0E0E0"/>
<path d="M302.074 95.381L246.164 132.823L301.234 215.24L357.144 177.798L302.074 95.381Z" fill="#F5F5F5"/>
<path d="M328.259 173.917L327.624 177.849L299.826 173.84L300.467 169.907L328.259 173.917Z" fill="#E0E0E0"/>
<path d="M314.262 159.893L318.249 160.469L313.829 187.864L309.836 187.288L314.262 159.893Z" fill="#E0E0E0"/>
<path d="M288.66 125.102C288.707 125.173 283.112 129.005 276.158 133.656C269.204 138.307 263.532 142.025 263.485 141.972C263.437 141.918 269.038 138.075 275.986 133.418C282.934 128.761 288.612 125.001 288.66 125.102Z" fill="#E0E0E0"/>
<path d="M309.219 119.905C309.266 119.976 299.957 126.296 288.452 134.012C276.947 141.728 267.531 147.941 267.484 147.87C267.436 147.799 276.746 141.479 288.25 133.757C299.755 126.035 309.153 119.833 309.219 119.905Z" fill="#E0E0E0"/>
<path d="M313.343 126.07C313.39 126.142 304.081 132.462 292.576 140.184C281.071 147.906 271.655 154.107 271.608 154.036C271.56 153.964 280.84 147.674 292.374 139.952C303.909 132.23 313.307 126.005 313.343 126.07Z" fill="#E0E0E0"/>
<path d="M317.46 132.23C317.507 132.301 308.192 138.621 296.693 146.343C285.194 154.065 275.772 160.267 275.725 160.196C275.677 160.124 284.987 153.81 296.491 146.082C307.996 138.354 317.418 132.171 317.46 132.23Z" fill="#E0E0E0"/>
<path d="M321.613 138.414C321.661 138.485 312.351 144.799 300.847 152.521C289.342 160.243 279.926 166.444 279.878 166.379C279.831 166.314 289.14 159.988 300.645 152.266C312.15 144.544 321.536 138.342 321.613 138.414Z" fill="#E0E0E0"/>
<path d="M213.621 33.2337L152.616 0.568542L104.572 90.4977L165.577 123.163L213.621 33.2337Z" fill="#F5F5F5"/>
<path d="M155.136 95.0278L151.267 96.3524L141.441 69.165L145.316 67.8345L155.136 95.0278Z" fill="#E0E0E0"/>
<path d="M161.07 75.5208L162.482 79.4234L135.509 88.672L134.097 84.7694L161.07 75.5208Z" fill="#E0E0E0"/>
<path d="M180.234 35.408C180.187 35.4971 174.004 32.2776 166.415 28.2206C158.827 24.1636 152.721 20.7956 152.769 20.7065C152.816 20.6174 159.005 23.8369 166.594 27.8939C174.182 31.9509 180.282 35.313 180.234 35.408Z" fill="#E0E0E0"/>
<path d="M194.878 51.5826C194.83 51.6717 184.589 46.2782 172.005 39.5423C159.42 32.8063 149.262 27.2702 149.31 27.1811C149.357 27.092 159.592 32.4796 172.177 39.2215C184.761 45.9634 194.925 51.4935 194.878 51.5826Z" fill="#E0E0E0"/>
<path d="M191.282 58.3126C191.235 58.4017 180.994 53.0142 168.409 46.2723C155.824 39.5304 145.667 34.0002 145.714 33.9111C145.761 33.822 155.996 39.2155 168.581 45.9515C181.166 52.6875 191.329 58.2235 191.282 58.3126Z" fill="#E0E0E0"/>
<path d="M187.686 65.0427C187.639 65.1318 177.398 59.7442 164.813 53.0082C152.229 46.2723 142.071 40.754 142.118 40.6471C142.166 40.5402 152.401 45.9456 164.985 52.6815C177.57 59.4175 187.734 64.9536 187.686 65.0427Z" fill="#E0E0E0"/>
<path d="M184.091 71.7727C184.043 71.8618 173.802 66.4742 161.218 59.7383C148.633 53.0023 138.469 47.4662 138.523 47.3771C138.576 47.288 148.805 52.6756 161.39 59.4116C173.974 66.1475 184.138 71.6836 184.091 71.7727Z" fill="#E0E0E0"/>
<path d="M342.778 218.259C342.778 218.342 266.089 218.413 171.506 218.413C76.9228 218.413 0.222656 218.36 0.222656 218.259C0.222656 218.158 76.8991 218.105 171.506 218.105C266.113 218.105 342.778 218.17 342.778 218.259Z" fill="#263238"/>
<path d="M126.407 96.3168L105.403 204.306L102.674 218.443L242.7 217.766C248.99 217.736 254.567 212.147 256.579 203.843L281.415 101.894C282.952 95.5921 279.582 89.0343 274.812 89.0403L133.052 89.1888C129.967 89.1828 127.202 92.1053 126.407 96.3168Z" fill="#FD72B5"/>
<g opacity="0.5">
<path d="M126.407 96.3168L105.403 204.306L102.674 218.443L242.7 217.766C248.99 217.736 254.567 212.147 256.579 203.843L281.415 101.894C282.952 95.5921 279.582 89.0343 274.812 89.0403L133.052 89.1888C129.967 89.1828 127.202 92.1053 126.407 96.3168Z" fill="black"/>
</g>
<path d="M229.285 196.976L214.452 77.3385C213.858 72.438 209.948 68.7789 205.338 68.7968L172.823 68.8977C171.615 68.9114 170.422 69.1712 169.318 69.6614C168.213 70.1516 167.219 70.8619 166.398 71.7489L150.971 88.1849L60.547 88.672C55.0231 88.7017 50.7748 93.9408 51.5046 99.8214L65.2759 210.394C65.8692 215.289 69.7793 218.942 74.3776 218.936L231.997 218.621C249.547 218.984 251.227 213.798 251.227 213.798C231.077 218.259 229.285 197.006 229.285 196.976Z" fill="#FD72B5"/>
<g opacity="0.5">
<path d="M161.319 173.05L156.003 178.764L115.062 141.888L120.379 136.174L161.319 173.05Z" fill="white"/>
<path d="M153.777 134.909L159.651 140.201L122.609 180.029L116.729 174.737L153.777 134.909Z" fill="white"/>
</g>
</g>
<defs>
<clipPath id="clip0_544_4448">
<rect width="358" height="219" fill="white"/>
</clipPath>
</defs>
</svg>
